<svg width="168" height="169" viewBox="0 0 168 169" fill="none" xmlns="http://www.w3.org/2000/svg">
<path d="M167.352 82.7914C167.374 83.0572 167.252 83.201 166.986 83.2229L153.831 84.3063C153.565 84.3282 153.421 84.2063 153.399 83.9405L153.21 81.6483C153.188 81.3825 153.31 81.2387 153.576 81.2168L158.858 80.7818L158.353 74.6426L153.071 75.0776C152.805 75.0995 152.661 74.9775 152.639 74.7118L152.45 72.4195C152.428 72.1538 152.55 72.0099 152.816 71.988L165.972 70.9046C166.237 70.8827 166.381 71.0047 166.403 71.2704L166.592 73.5627C166.614 73.8284 166.492 73.9723 166.226 73.9942L161.143 74.4127L161.649 80.552L166.732 80.1334C166.997 80.1115 167.141 80.2334 167.163 80.4992L167.352 82.7914ZM152.766 91.0998C152.93 89.911 153.342 89.066 154.003 88.5648C154.665 88.0636 155.59 87.8948 156.778 88.0584L166.824 89.4406C167.088 89.477 167.202 89.6273 167.165 89.8914L166.852 92.17C166.816 92.4341 166.665 92.5481 166.401 92.5117L156.891 91.203C156.442 91.1412 156.098 91.1949 155.859 91.3639C155.632 91.548 155.487 91.8646 155.426 92.3137L154.949 95.781C154.887 96.2301 154.941 96.5674 155.112 96.7928C155.294 97.0332 155.61 97.1843 156.059 97.2461L165.57 98.5548C165.834 98.5911 165.948 98.7414 165.911 99.0056L165.598 101.284C165.561 101.548 165.411 101.662 165.147 101.626L155.102 100.244C153.913 100.08 153.068 99.6676 152.567 99.0064C152.064 98.3585 151.894 97.4401 152.057 96.2513L152.766 91.0998ZM150.705 103.184C150.806 102.937 150.98 102.864 151.227 102.965L163.453 107.941C163.7 108.041 163.773 108.215 163.673 108.462L162.511 111.315C162.461 111.438 162.399 111.521 162.324 111.562C162.245 111.616 162.128 111.655 161.974 111.679L154.884 112.918L154.839 113.029L159.049 118.867C159.143 118.991 159.201 119.094 159.226 119.176C159.245 119.27 159.229 119.379 159.179 119.503L158.018 122.355C157.917 122.602 157.744 122.676 157.497 122.575L145.271 117.599C145.024 117.499 144.95 117.325 145.051 117.078L145.903 114.985C146.003 114.738 146.177 114.664 146.424 114.765L155.038 118.271L155.091 118.141L151.585 113.173C151.484 113.031 151.424 112.913 151.405 112.819C151.381 112.737 151.396 112.628 151.452 112.492L152.085 110.936C152.14 110.801 152.208 110.706 152.287 110.652C152.362 110.61 152.484 110.574 152.656 110.542L158.634 109.434L158.687 109.305L150.073 105.799C149.826 105.698 149.753 105.525 149.853 105.278L150.705 103.184ZM136.594 130.346C136.554 130.334 136.502 130.304 136.437 130.257C136.296 130.156 136.277 130.035 136.378 129.894L137.688 128.077C137.828 127.883 137.995 127.822 138.188 127.896L140.591 128.838L144.146 123.906L142.492 121.925C142.361 121.765 142.365 121.587 142.506 121.393L143.815 119.575C143.917 119.435 144.038 119.415 144.178 119.517C144.243 119.563 144.288 119.604 144.313 119.638L153.117 130.101C153.24 130.272 153.235 130.449 153.103 130.633L149.805 135.209C149.665 135.403 149.498 135.464 149.304 135.39L136.594 130.346ZM148.772 132.196L149.918 130.606L146.996 127.168L145.927 125.881L143.027 129.904L144.587 130.511L148.772 132.196ZM134.405 131.899C134.604 131.722 134.792 131.732 134.97 131.93L143.78 141.76C143.958 141.959 143.948 142.147 143.749 142.325L141.694 144.167C141.584 144.265 141.482 144.321 141.387 144.335C141.282 144.357 141.165 144.346 141.035 144.301L130.758 141.345L130.639 141.452L136.646 148.154C136.824 148.353 136.813 148.541 136.615 148.719L134.991 150.174C134.793 150.352 134.605 150.342 134.427 150.143L125.617 140.313C125.439 140.114 125.449 139.926 125.648 139.748L127.718 137.893C127.827 137.795 127.929 137.739 128.025 137.725C128.12 137.712 128.242 137.728 128.39 137.774L138.653 140.715L138.758 140.622L132.751 133.919C132.573 133.721 132.583 133.532 132.782 133.354L134.405 131.899ZM110.646 151.298C110.407 151.416 110.228 151.355 110.111 151.116L109.316 149.5C109.199 149.261 109.26 149.083 109.499 148.965L118.383 144.597C118.623 144.48 118.801 144.54 118.919 144.78L124.742 156.626C124.86 156.865 124.799 157.043 124.56 157.161L115.855 161.441C115.616 161.558 115.437 161.497 115.32 161.258L114.525 159.643C114.408 159.403 114.469 159.225 114.708 159.107L120.99 156.019L119.622 153.237L113.879 156.061C113.639 156.178 113.461 156.117 113.343 155.878L112.593 154.352C112.476 154.113 112.536 153.935 112.776 153.817L118.519 150.993L117.107 148.122L110.646 151.298ZM107.898 149.636C108.039 149.597 108.156 149.592 108.247 149.622C108.342 149.665 108.404 149.738 108.432 149.841C108.453 149.918 108.446 150.017 108.41 150.138L106.105 157.56L111.598 162.495C111.707 162.589 111.774 162.681 111.799 162.771C111.824 162.861 111.805 162.943 111.742 163.015C111.679 163.088 111.583 163.142 111.455 163.178L109.142 163.817C109 163.856 108.884 163.861 108.793 163.831C108.692 163.817 108.587 163.763 108.478 163.669L106.303 161.655L104.828 160.299L104.693 160.337L104.125 162.258L103.293 165.102C103.247 165.239 103.192 165.338 103.125 165.397C103.049 165.474 102.941 165.531 102.8 165.57L100.506 166.205C100.364 166.244 100.246 166.242 100.151 166.199C100.06 166.169 100.002 166.109 99.9769 166.019C99.9556 165.942 99.9629 165.843 99.9987 165.722L102.191 158.642L96.4199 153.452C96.3343 153.393 96.2756 153.305 96.2436 153.19C96.1867 152.984 96.2933 152.844 96.5631 152.769L98.8764 152.13C99.0177 152.091 99.1387 152.078 99.2393 152.092C99.3307 152.122 99.4326 152.191 99.5453 152.298L102.048 154.594L103.462 155.884L103.597 155.846L104.149 154.013L105.116 150.758C105.161 150.621 105.222 150.514 105.298 150.438C105.361 150.365 105.463 150.309 105.604 150.27L107.898 149.636ZM86.924 167.64C85.7541 167.73 84.8896 167.528 84.3305 167.036C83.7592 166.558 83.4289 165.734 83.3396 164.564L83.2179 162.969C83.1287 161.799 83.3297 160.928 83.8209 160.355C84.2988 159.784 85.1227 159.454 86.2927 159.364L91.7369 158.949L91.3337 153.664C91.3134 153.398 91.4362 153.255 91.7021 153.235L93.9954 153.06C94.2613 153.04 94.4044 153.163 94.4247 153.429L95.4288 166.59C95.4491 166.856 95.3263 166.999 95.0604 167.02L86.924 167.64ZM86.4033 163.969C86.4367 164.408 86.5531 164.707 86.7524 164.865C86.9395 165.038 87.2524 165.108 87.6911 165.075L92.178 164.732L91.927 161.442L87.4401 161.784C87.0013 161.818 86.7021 161.927 86.5425 162.113C86.3706 162.314 86.3013 162.633 86.3348 163.072L86.4033 163.969ZM73.6139 164.693L74.5414 155.741L71.8956 155.467C71.6303 155.439 71.5115 155.293 71.5389 155.028L71.7141 153.337C71.7416 153.071 71.888 152.953 72.1532 152.98L80.5085 153.846C80.7737 153.873 80.8926 154.02 80.8651 154.285L80.69 155.976C80.6625 156.241 80.5161 156.36 80.2509 156.332L77.6249 156.06L76.6974 165.012L79.3234 165.284C79.5886 165.312 79.7075 165.458 79.68 165.724L79.5048 167.415C79.4774 167.68 79.331 167.799 79.0657 167.771L70.7105 166.906C70.4452 166.878 70.3263 166.732 70.3538 166.466L70.529 164.775C70.5565 164.51 70.7029 164.391 70.9681 164.419L73.6139 164.693ZM57.6211 149.591C57.5708 149.479 57.5608 149.371 57.591 149.269C57.6174 149.18 57.6721 149.112 57.7549 149.067C57.8211 149.031 57.9118 149.03 58.0269 149.064L60.578 149.818C60.7187 149.859 60.8281 149.912 60.9063 149.977C60.9807 150.055 61.0475 150.158 61.1068 150.286L64.0569 156.892L64.5748 157.045L66.104 151.866C66.1795 151.611 66.3452 151.52 66.6009 151.596L68.8068 152.247C69.0625 152.323 69.1526 152.488 69.0771 152.744L65.339 165.404C65.2635 165.66 65.0978 165.75 64.8421 165.674L57.112 163.392C55.9867 163.059 55.2502 162.564 54.9026 161.905C54.5383 161.255 54.5223 160.368 54.8546 159.243L55.2794 157.804C55.6117 156.679 56.1091 155.936 56.7716 155.575C57.4214 155.211 58.3089 155.195 59.4342 155.527L60.3741 155.805L60.3967 155.728L57.6211 149.591ZM62.9606 162.512L63.8951 159.347L59.6752 158.101C59.2533 157.976 58.9346 157.973 58.7193 158.09C58.4874 158.216 58.3091 158.49 58.1845 158.912L57.9297 159.775C57.8051 160.197 57.8077 160.518 57.9377 160.737C58.051 160.965 58.3187 161.141 58.7407 161.266L62.9606 162.512ZM45.2806 155.721L49.3772 147.707L47.0087 146.496C46.7713 146.375 46.7133 146.196 46.8347 145.958L47.6085 144.444C47.7298 144.207 47.9092 144.149 48.1467 144.27L55.6261 148.094C55.8635 148.215 55.9215 148.395 55.8001 148.632L55.0263 150.146C54.905 150.383 54.7255 150.441 54.4881 150.32L52.1375 149.118L48.0409 157.132L50.3915 158.333C50.629 158.455 50.687 158.634 50.5656 158.872L49.7918 160.385C49.6704 160.623 49.491 160.681 49.2536 160.559L41.7742 156.736C41.5368 156.615 41.4787 156.435 41.6001 156.198L42.3739 154.684C42.4953 154.447 42.6747 154.389 42.9121 154.51L45.2806 155.721ZM35.8139 138.494C35.6013 138.333 35.5754 138.147 35.7362 137.934L36.8222 136.498C36.983 136.286 37.1698 136.26 37.3825 136.421L45.278 142.393C45.4907 142.554 45.5166 142.741 45.3557 142.953L37.3924 153.481C37.2315 153.694 37.0447 153.719 36.8321 153.559L29.096 147.707C28.8834 147.546 28.8575 147.359 29.0183 147.146L30.1043 145.711C30.2651 145.498 30.4519 145.472 30.6646 145.633L36.2473 149.856L38.1174 147.384L33.0133 143.523C32.8006 143.362 32.7747 143.175 32.9356 142.962L33.9611 141.607C34.122 141.394 34.3088 141.368 34.5215 141.529L39.6257 145.39L41.5562 142.838L35.8139 138.494ZM34.9715 134.08C35.1465 134.281 35.1333 134.469 34.932 134.644L24.9696 143.304C24.7683 143.479 24.5802 143.466 24.4053 143.264L22.5946 141.181C22.4984 141.071 22.4442 140.968 22.432 140.872C22.411 140.767 22.4239 140.65 22.4707 140.521L25.5823 130.29L25.4773 130.169L18.6848 136.074C18.4835 136.249 18.2954 136.235 18.1205 136.034L16.6903 134.389C16.5154 134.188 16.5285 133.999 16.7298 133.825L26.6922 125.165C26.8935 124.99 27.0816 125.003 27.2565 125.204L29.0803 127.302C29.1765 127.413 29.2308 127.516 29.243 127.612C29.2552 127.707 29.2373 127.829 29.1891 127.976L26.0926 138.194L26.1845 138.299L32.977 132.395C33.1783 132.22 33.3664 132.233 33.5414 132.435L34.9715 134.08ZM23.6137 119.125C24.1811 120.182 24.345 121.108 24.1054 121.902C23.8659 122.697 23.2174 123.378 22.16 123.945L15.9038 127.302C14.8464 127.869 13.9264 128.03 13.1438 127.784C12.3495 127.545 11.6686 126.896 11.1013 125.839L8.54802 121.081C7.98064 120.023 7.81988 119.103 8.06574 118.321C8.29355 117.533 8.93615 116.855 9.99355 116.288L11.0157 115.739C11.2507 115.613 11.4312 115.667 11.5573 115.902L12.6637 117.964C12.7898 118.199 12.7353 118.38 12.5003 118.506L11.8835 118.837C11.4841 119.051 11.2467 119.3 11.1713 119.582C11.0779 119.859 11.1383 120.198 11.3527 120.597L13.0832 123.822C13.2976 124.222 13.5492 124.465 13.838 124.552C14.1088 124.634 14.4439 124.567 14.8434 124.353L20.3066 121.421C20.706 121.207 20.9525 120.961 21.0459 120.684C21.1212 120.402 21.0518 120.061 20.8374 119.661L19.1069 116.436C18.8925 116.037 18.65 115.796 18.3792 115.715C18.0903 115.627 17.7462 115.691 17.3467 115.905L16.7299 116.236C16.4949 116.362 16.3144 116.308 16.1883 116.073L15.0819 114.011C14.9558 113.776 15.0103 113.596 15.2453 113.47L16.2498 112.931C17.3072 112.363 18.233 112.199 19.0274 112.439C19.8154 112.667 20.4931 113.309 21.0605 114.367L23.6137 119.125ZM12.7749 99.3021C12.6998 99.0462 12.7902 98.8807 13.046 98.8056L14.7732 98.2987C15.0291 98.2236 15.1945 98.314 15.2696 98.5699L18.0577 108.069C18.1328 108.325 18.0424 108.491 17.7865 108.566L5.1208 112.283C4.86493 112.358 4.69944 112.268 4.62434 112.012L1.89261 102.704C1.81751 102.449 1.9079 102.283 2.16378 102.208L3.89092 101.701C4.14679 101.626 4.31228 101.716 4.38738 101.972L6.35873 108.689L9.33326 107.816L7.53088 101.675C7.45578 101.419 7.54617 101.254 7.80204 101.178L9.43324 100.7C9.68911 100.625 9.8546 100.715 9.9297 100.971L11.7321 107.112L14.8026 106.211L12.7749 99.3021ZM0.00462088 79.101C0.0015777 78.8343 0.133381 78.6995 0.400031 78.6964L13.5992 78.5458C13.8658 78.5427 14.0007 78.6746 14.0037 78.9412L14.03 81.2411C14.033 81.5077 13.9012 81.6425 13.6345 81.6456L8.33489 81.7061L8.40519 87.8657L13.7048 87.8052C13.9715 87.8021 14.1063 87.9339 14.1094 88.2006L14.1356 90.5004C14.1387 90.7671 14.0069 90.9019 13.7402 90.905L0.541082 91.0556C0.274433 91.0587 0.139586 90.9269 0.136543 90.6602L0.110295 88.3604C0.107252 88.0937 0.239056 87.9589 0.505705 87.9558L5.60537 87.8976L5.53508 81.738L0.435408 81.7962C0.168758 81.7993 0.0339115 81.6675 0.0308683 81.4008L0.00462088 79.101ZM15.1719 71.8513C14.9175 73.024 14.4414 73.8349 13.7437 74.2838C13.046 74.7327 12.1107 74.83 10.938 74.5755L1.02859 72.4255C0.767989 72.369 0.665959 72.2104 0.722501 71.9498L1.21018 69.7021C1.26672 69.4415 1.4253 69.3394 1.6859 69.396L11.0676 71.4315C11.5106 71.5276 11.8576 71.5006 12.1085 71.3504C12.3492 71.1843 12.5176 70.8797 12.6137 70.4367L13.3558 67.0163C13.4519 66.5733 13.4235 66.2328 13.2704 65.995C13.1072 65.7413 12.8041 65.5663 12.361 65.4702L2.97931 63.4347C2.71871 63.3781 2.61667 63.2196 2.67322 62.959L3.1609 60.7113C3.21744 60.4507 3.37601 60.3486 3.63662 60.4052L13.5461 62.5552C14.7188 62.8096 15.5296 63.2857 15.9785 63.9834C16.4303 64.6681 16.5289 65.5968 16.2745 66.7696L15.1719 71.8513ZM18.1481 59.957C18.0299 60.196 17.8513 60.2564 17.6122 60.1382L5.78071 54.2854C5.54169 54.1671 5.4813 53.9885 5.59954 53.7495L6.96518 50.9888C7.0243 50.8693 7.09254 50.7915 7.16991 50.7554C7.25318 50.7073 7.37231 50.677 7.52729 50.6644L14.6887 49.9451L14.7419 49.8376L10.968 43.7089C10.884 43.5781 10.8328 43.471 10.8146 43.3876C10.8023 43.2922 10.8257 43.1848 10.8848 43.0653L12.2504 40.3046C12.3687 40.0656 12.5473 40.0052 12.7863 40.1234L24.6178 45.9762C24.8569 46.0944 24.9172 46.2731 24.799 46.5121L23.7969 48.5378C23.6787 48.7768 23.5001 48.8372 23.2611 48.7189L14.9252 44.5954L14.8631 44.7209L17.998 49.931C18.0881 50.0797 18.1393 50.2017 18.1516 50.2971C18.1699 50.3805 18.1465 50.4879 18.0814 50.6194L17.3365 52.1252C17.2715 52.2567 17.1974 52.3464 17.1141 52.3945C17.0367 52.4306 16.9116 52.458 16.7388 52.4766L10.6952 53.1464L10.6332 53.2718L18.969 57.3954C19.208 57.5136 19.2684 57.6923 19.1502 57.9313L18.1481 59.957ZM34.2271 33.916C34.2663 33.9316 34.3164 33.9652 34.3776 34.0167C34.5102 34.1284 34.5207 34.2505 34.409 34.3831L32.966 36.0963C32.8114 36.2799 32.6404 36.3277 32.4531 36.2396L30.1287 35.1187L26.212 39.769L27.7118 41.869C27.8304 42.0386 27.8124 42.2152 27.6578 42.3988L26.2148 44.1121C26.1032 44.2447 25.9811 44.2551 25.8485 44.1435C25.7873 44.0919 25.7457 44.0482 25.7237 44.0122L17.7332 32.9155C17.6232 32.7357 17.6412 32.5591 17.7872 32.3857L21.4205 28.0719C21.5751 27.8884 21.7461 27.8406 21.9334 27.9287L34.2271 33.916ZM22.2238 31.1542L20.9612 32.6533L23.6156 36.3009L24.5841 37.6658L27.7793 33.8721L26.2696 33.1497L22.2238 31.1542ZM36.5241 32.5267C36.3132 32.6898 36.1261 32.6659 35.963 32.455L27.8878 22.0132C27.7247 21.8022 27.7486 21.6152 27.9595 21.452L30.1428 19.7636C30.2588 19.6739 30.3648 19.6256 30.4607 19.6189C30.5672 19.604 30.6835 19.6236 30.8096 19.6777L40.8453 23.3698L40.9718 23.2719L35.466 16.1525C35.3029 15.9416 35.3268 15.7545 35.5377 15.5914L37.2622 14.2578C37.4732 14.0946 37.6602 14.1186 37.8233 14.3295L45.8985 24.7713C46.0617 24.9823 46.0378 25.1693 45.8268 25.3324L43.6277 27.0331C43.5117 27.1228 43.4057 27.1711 43.3098 27.1778C43.2139 27.1846 43.0935 27.1597 42.9487 27.1032L32.9252 23.4269L32.8145 23.5125L38.3203 30.6319C38.4834 30.8429 38.4595 31.0299 38.2486 31.1931L36.5241 32.5267ZM61.6557 14.9458C61.903 14.8461 62.0765 14.92 62.1762 15.1673L62.8488 16.8369C62.9485 17.0843 62.8746 17.2578 62.6273 17.3574L53.4445 21.057C53.1971 21.1566 53.0236 21.0828 52.924 20.8354L47.9913 8.59169C47.8916 8.34434 47.9655 8.17084 48.2128 8.07119L57.2101 4.44642C57.4575 4.34676 57.631 4.42061 57.7306 4.66796L58.4032 6.33756C58.5029 6.58491 58.429 6.75841 58.1817 6.85806L51.6888 9.47388L52.8473 12.3493L58.7836 9.95769C59.0309 9.85804 59.2044 9.93189 59.3041 10.1792L59.9394 11.7561C60.039 12.0034 59.9652 12.1769 59.7178 12.2766L53.7815 14.6682L54.9773 17.6364L61.6557 14.9458ZM64.2719 16.8067C64.1281 16.8354 64.0117 16.8314 63.9228 16.7947C63.8314 16.7449 63.7752 16.6677 63.7544 16.5631C63.7387 16.4847 63.7532 16.3866 63.7978 16.269L66.6396 9.03465L61.5214 3.71175C61.4195 3.60969 61.3594 3.51289 61.3412 3.42135C61.323 3.32982 61.3479 3.25008 61.4159 3.18215C61.484 3.11422 61.5834 3.06724 61.7141 3.04119L64.0679 2.57246C64.2118 2.54381 64.3281 2.54783 64.417 2.58451C64.5164 2.60551 64.617 2.66705 64.7189 2.76911L66.741 4.9359L68.1126 6.39614L68.2499 6.3688L68.9575 4.49451L69.9953 1.71836C70.0503 1.58505 70.1131 1.49096 70.1838 1.43611C70.2649 1.36557 70.3774 1.31598 70.5212 1.28734L72.8554 0.822509C72.9992 0.793864 73.1169 0.80442 73.2084 0.854179C73.2972 0.89086 73.3508 0.95497 73.369 1.04651C73.3846 1.12497 73.3702 1.22301 73.3256 1.34064L70.6214 8.2417L75.9982 13.8394C76.0792 13.9048 76.1314 13.9964 76.1549 14.1141C76.1965 14.3233 76.08 14.4552 75.8054 14.5099L73.4517 14.9787C73.3078 15.0073 73.1862 15.0111 73.0869 14.9901C72.998 14.9535 72.9013 14.8775 72.7968 14.7624L70.469 12.2894L69.1522 10.8998L69.0149 10.9272L68.331 12.7152L67.1281 15.8913C67.0731 16.0246 67.005 16.1265 66.9239 16.197C66.8559 16.265 66.7499 16.3133 66.6061 16.3419L64.2719 16.8067ZM86.5182 0.390685C87.6915 0.388066 88.5388 0.652843 89.06 1.18502C89.5945 1.70382 89.863 2.54989 89.8656 3.72322L89.8692 5.32322C89.8718 6.49655 89.6071 7.35048 89.0749 7.885C88.5561 8.41949 87.71 8.68805 86.5367 8.69066L81.0767 8.70285L81.0885 14.0028C81.0891 14.2695 80.9561 14.4031 80.6894 14.4037L78.3894 14.4089C78.1228 14.4095 77.9891 14.2764 77.9886 14.0098L77.9591 0.809786C77.9585 0.543119 78.0915 0.409489 78.3582 0.408893L86.5182 0.390685ZM86.7664 4.09014C86.7655 3.65014 86.6714 3.34368 86.4844 3.17077C86.3106 2.98449 86.0038 2.89184 85.5638 2.89282L81.0638 2.90286L81.0711 6.20285L85.5711 6.19281C86.0111 6.19183 86.3176 6.10448 86.4905 5.93076C86.6768 5.74368 86.7694 5.43014 86.7685 4.99014L86.7664 4.09014ZM99.581 4.31622L97.9916 13.1748L100.61 13.6445C100.872 13.6916 100.98 13.8464 100.933 14.1089L100.633 15.7821C100.586 16.0446 100.431 16.1523 100.168 16.1052L91.9004 14.6219C91.6379 14.5748 91.5302 14.42 91.5773 14.1575L91.8775 12.4842C91.9246 12.2218 92.0794 12.1141 92.3419 12.1611L94.9404 12.6274L96.5297 3.76879L93.9312 3.30259C93.6687 3.2555 93.561 3.10072 93.6081 2.83824L93.9083 1.16496C93.9554 0.902481 94.1102 0.794789 94.3727 0.84188L102.641 2.32525C102.903 2.37234 103.011 2.52712 102.964 2.7896L102.664 4.46288C102.616 4.72535 102.462 4.83305 102.199 4.78596L99.581 4.31622ZM114.404 20.5826C114.446 20.6983 114.448 20.806 114.41 20.9057C114.377 20.9929 114.317 21.0559 114.231 21.0946C114.162 21.1255 114.072 21.1197 113.96 21.0771L111.473 20.1329C111.336 20.0808 111.231 20.0195 111.158 19.949C111.089 19.866 111.03 19.7581 110.981 19.6253L108.539 12.8151L108.034 12.6234L106.118 17.6718C106.023 17.9211 105.851 17.9985 105.602 17.9038L103.451 17.0874C103.202 16.9928 103.125 16.8208 103.22 16.5715L107.905 4.231C108 3.9817 108.171 3.90437 108.421 3.99902L115.956 6.85992C117.053 7.27639 117.75 7.82622 118.047 8.5094C118.361 9.18485 118.309 10.071 117.893 11.168L117.361 12.5703C116.944 13.6672 116.392 14.3703 115.704 14.6796C115.028 14.9937 114.142 14.9425 113.045 14.526L112.129 14.1781L112.101 14.2529L114.404 20.5826ZM110.058 7.2946L108.886 10.3797L113 11.9415C113.411 12.0977 113.729 12.1255 113.952 12.025C114.193 11.9167 114.391 11.6569 114.548 11.2456L114.867 10.4042C115.023 9.99283 115.045 9.67301 114.932 9.4447C114.836 9.20867 114.582 9.01256 114.171 8.85638L110.058 7.2946ZM127.166 15.3905L122.484 23.0765L124.756 24.4604C124.983 24.5991 125.028 24.7824 124.889 25.0101L124.005 26.4619C123.866 26.6897 123.683 26.7342 123.455 26.5954L116.281 22.2252C116.054 22.0864 116.009 21.9032 116.148 21.6755L117.032 20.2237C117.171 19.9959 117.354 19.9514 117.582 20.0902L119.837 21.4637L124.519 13.7776L122.264 12.4041C122.037 12.2654 121.992 12.0822 122.131 11.8544L123.015 10.4026C123.154 10.1749 123.337 10.1304 123.565 10.2691L130.739 14.6394C130.967 14.7781 131.011 14.9613 130.872 15.1891L129.988 16.6409C129.849 16.8686 129.666 16.9131 129.438 16.7744L127.166 15.3905ZM135.332 33.2576C135.532 33.4335 135.544 33.6217 135.368 33.8221L134.18 35.1745C134.004 35.3749 133.816 35.3871 133.616 35.2111L126.177 28.6783C125.977 28.5024 125.965 28.3142 126.141 28.1138L134.851 18.1957C135.027 17.9953 135.215 17.9831 135.416 18.1591L142.704 24.5599C142.904 24.7359 142.916 24.9241 142.741 25.1244L141.553 26.4769C141.377 26.6773 141.189 26.6895 140.988 26.5135L135.729 21.8944L133.683 24.2236L138.492 28.4468C138.692 28.6228 138.704 28.811 138.528 29.0113L137.407 30.2887C137.231 30.489 137.042 30.5012 136.842 30.3253L132.033 26.102L129.922 28.5064L135.332 33.2576ZM135.847 37.7228C135.688 37.5091 135.715 37.3225 135.929 37.163L146.506 29.266C146.72 29.1065 146.906 29.1336 147.066 29.3472L148.717 31.5588C148.805 31.6764 148.851 31.7831 148.856 31.8792C148.869 31.9858 148.848 32.1018 148.791 32.227L144.93 42.1986L145.025 42.3268L152.237 36.9425C152.451 36.783 152.637 36.8101 152.797 37.0238L154.101 38.7706C154.261 38.9843 154.234 39.1709 154.02 39.3304L143.443 47.2274C143.229 47.3869 143.042 47.3598 142.883 47.1462L141.22 44.9185C141.132 44.801 141.086 44.6942 141.08 44.5982C141.075 44.5022 141.102 44.3823 141.161 44.2384L145.007 34.2788L144.923 34.1666L137.711 39.5508C137.498 39.7104 137.311 39.6833 137.152 39.4696L135.847 37.7228ZM146.064 53.4791C145.577 52.3825 145.482 51.447 145.78 50.6727C146.078 49.8983 146.775 49.2674 147.872 48.7801L154.36 45.8968C155.457 45.4095 156.386 45.3174 157.148 45.6207C157.923 45.9186 158.553 46.6158 159.041 47.7124L161.234 52.6471C161.721 53.7437 161.813 54.673 161.51 55.4352C161.224 56.2042 160.533 56.8323 159.436 57.3196L158.376 57.7907C158.133 57.899 157.957 57.8313 157.848 57.5876L156.898 55.4493C156.79 55.2056 156.857 55.0296 157.101 54.9213L157.741 54.637C158.155 54.4529 158.41 54.2228 158.506 53.9466C158.62 53.6772 158.585 53.3354 158.401 52.9211L156.915 49.5765C156.73 49.1622 156.498 48.9009 156.216 48.7926C155.952 48.6911 155.613 48.7324 155.199 48.9165L149.533 51.4343C149.119 51.6184 148.855 51.8452 148.741 52.1146C148.645 52.3907 148.689 52.7359 148.873 53.1502L150.359 56.4948C150.543 56.9091 150.767 57.167 151.031 57.2685C151.313 57.3769 151.661 57.339 152.075 57.1549L152.715 56.8706C152.958 56.7623 153.134 56.83 153.243 57.0737L154.193 59.212C154.301 59.4557 154.234 59.6317 153.99 59.74L152.948 60.203C151.852 60.6903 150.916 60.785 150.142 60.4872C149.373 60.2015 148.745 59.5103 148.257 58.4137L146.064 53.4791Z" fill="white"/>
</svg>
