<svg width="566" height="453" viewBox="0 0 566 453" fill="none" xmlns="http://www.w3.org/2000/svg">
<path d="M351.203 304.386C371.009 311.733 421.895 327.641 466.996 332.496C512.098 337.352 551.731 353.899 565.91 361.565V451.783H393.744L394.913 452.763H0V362.093C14.1634 354.38 54.6272 337.62 99.6787 332.735C144.73 327.851 198.008 311.777 217.792 304.386L283.781 359.666L351.203 304.386Z" fill="url(#paint0_linear_278_11181)"/>
<path d="M357.287 246.867C357.287 282.997 360.659 363.544 288.833 363.544C224.087 365.904 211.273 287.718 211.273 251.588C211.273 215.458 263.132 232.704 288.833 232.704C314.534 232.704 357.287 210.737 357.287 246.867Z" fill="black"/>
<path d="M351.711 257.013C351.692 257.065 351.656 257.164 351.623 257.294C351.597 257.397 351.532 257.669 351.532 258.027H357.655C357.655 258.637 357.464 259.109 357.452 259.14C357.397 259.287 357.34 259.411 357.304 259.486C357.228 259.643 357.142 259.802 357.065 259.938C356.907 260.218 356.691 260.576 356.437 260.988C355.922 261.821 355.179 262.985 354.249 264.422C352.385 267.301 349.727 271.342 346.543 276.162C340.618 285.132 332.864 296.82 324.953 308.847C314.904 328.972 316.826 351.928 317.836 360.44L314.796 360.801L311.756 361.162C311.067 355.354 309.873 342.451 312.426 328.005C310.146 331.519 307.935 334.947 305.838 338.224L303.419 366.199L301.676 366.048L299.933 365.897L301.773 344.612C301.035 345.781 300.318 346.92 299.625 348.027C296.393 353.192 293.699 357.624 291.793 360.968C290.838 362.643 290.102 364.011 289.599 365.041C289.347 365.557 289.17 365.954 289.058 366.241C288.924 366.582 288.948 366.601 288.97 366.429L285.933 366.049L285.932 366.048V366.049L282.895 366.428C282.919 366.623 282.951 366.62 282.813 366.283C282.699 366.003 282.518 365.612 282.257 365.101C281.735 364.08 280.968 362.725 279.973 361.062C277.986 357.744 275.175 353.346 271.8 348.223C271.438 347.673 271.067 347.118 270.693 346.553L272.367 365.897L270.624 366.048L268.881 366.199L266.657 340.501C263.492 335.789 260.045 330.719 256.469 325.501C259.771 340.277 259.536 353.17 258.795 359.412L255.755 359.052L252.715 358.69C253.689 350.477 253.725 328.882 244.218 307.831L244.26 307.812C236.371 296.439 228.702 285.468 222.78 276.962C219.453 272.183 216.675 268.176 214.727 265.32C213.754 263.896 212.977 262.741 212.439 261.914C212.173 261.505 211.947 261.148 211.78 260.868C211.7 260.733 211.609 260.573 211.528 260.414C211.49 260.338 211.428 260.212 211.369 260.06C211.357 260.029 211.147 259.539 211.147 258.901H217.271C217.27 258.526 217.2 258.241 217.171 258.134C217.135 257.998 217.096 257.894 217.075 257.84C217.033 257.732 216.997 257.662 216.992 257.653C217 257.667 217.016 257.695 217.044 257.741C217.146 257.912 217.318 258.186 217.57 258.574C218.071 259.343 218.817 260.453 219.784 261.87C221.714 264.699 224.477 268.684 227.805 273.464C234.455 283.015 243.346 295.722 252.26 308.601C256.784 315.137 261.318 321.725 265.574 327.975L264.704 317.908C261.303 314.727 259.761 310.192 259.156 305.978C258.515 301.515 258.881 297.136 259.424 294.42L261.14 294.763L262.854 295.105C262.377 297.491 262.043 301.467 262.619 305.48C263.199 309.519 264.659 313.324 267.514 315.729L268.067 316.195L268.13 316.916L269.6 333.912C272.218 337.79 274.684 341.471 276.913 344.855C280.303 350.002 283.171 354.485 285.226 357.916C285.45 358.29 285.664 358.654 285.87 359.006C286.063 358.66 286.264 358.304 286.474 357.937C288.442 354.483 291.188 349.967 294.435 344.779C296.984 340.705 299.852 336.2 302.912 331.444L304.17 316.916L304.232 316.195L304.786 315.729C307.641 313.324 309.101 309.519 309.681 305.48C310.257 301.467 309.922 297.491 309.445 295.105L311.16 294.763L312.876 294.42C313.419 297.136 313.784 301.515 313.144 305.978C312.538 310.192 310.996 314.727 307.596 317.908L306.967 325.17C310.544 319.652 314.292 313.92 318.032 308.226C326.563 295.238 335.07 282.422 341.434 272.788C344.618 267.967 347.263 263.947 349.109 261.095C350.034 259.666 350.749 258.546 351.228 257.771C351.47 257.379 351.635 257.103 351.733 256.929C351.763 256.877 351.778 256.847 351.785 256.834C351.782 256.841 351.749 256.909 351.711 257.013Z" fill="#CDCDCD"/>
<path d="M209.855 179.179C209.855 200.428 195.271 217.654 177.278 217.654C159.287 217.654 155.679 203.226 144.702 179.179C137.189 157.208 134.214 141.85 155.679 142.183C173.671 142.183 209.855 157.929 209.855 179.179Z" fill="white"/>
<path d="M161.347 175.809C158.919 182.014 165.731 188.061 169.44 190.309L176.185 203.123C169.778 203.573 157.166 199.751 157.975 180.867C158.987 157.262 155.615 156.587 151.905 153.552C148.937 151.125 146.397 158.161 145.498 161.983C144.711 158.049 144.891 149.843 151.905 148.494C160.673 146.808 164.382 168.053 161.347 175.809Z" fill="black"/>
<path d="M356.274 179.179C356.274 200.428 370.859 217.654 388.851 217.654C406.843 217.654 410.451 203.226 421.428 179.179C428.941 157.208 431.915 141.85 410.451 142.183C392.458 142.183 356.274 157.929 356.274 179.179Z" fill="white"/>
<path d="M404.834 175.809C407.262 182.014 400.45 188.061 396.741 190.309L389.996 203.123C396.403 203.573 409.015 199.751 408.206 180.867C407.194 157.262 410.566 156.587 414.276 153.552C417.244 151.125 419.784 158.161 420.683 161.983C421.47 158.049 421.29 149.843 414.276 148.494C405.508 146.808 401.799 168.053 404.834 175.809Z" fill="black"/>
<path d="M411.512 113.692C411.512 176.483 354.594 305.591 284.382 305.591C214.17 305.591 157.251 176.483 157.251 113.692C157.251 50.9018 214.17 0 284.382 0C354.594 0 411.512 50.9018 411.512 113.692Z" fill="url(#paint1_linear_278_11181)"/>
<path d="M257 234H292.5" stroke="white"/>
<path d="M272 234C272.8 233.2 284.667 223.5 291 219H328" stroke="white"/>
<path d="M307.5 215L308 193" stroke="white"/>
<path d="M336 104L254 234C250.5 241.5 241 246 232 241C224.8 237 224.667 229 225.5 225.5C225.5 225.5 295 101.5 300.5 92C306 82.5 316.833 81 323 81.5L329 86L334.5 91.0002L336 97V99.5002V104Z" stroke="white" stroke-width="2"/>
<path d="M328.5 84.5001C348.5 99 328.5 121.5 316 118.5C303.5 115.5 221.5 102 221.5 102C211.833 99.5 193.8 88.2001 199 63.0001C204.2 37.8001 230.5 38.5001 243 42.0001C243 42.0001 308.5 70.0003 328.5 84.5001Z" stroke="white" stroke-width="2"/>
<path d="M307.5 194L324.5 186V174.5" stroke="white"/>
<circle cx="307.5" cy="194.5" r="2.5" fill="white"/>
<circle cx="307.5" cy="213.5" r="2.5" fill="white"/>
<circle cx="328.5" cy="218.5" r="2.5" fill="white"/>
<circle cx="319.5" cy="234.5" r="2.5" fill="white"/>
<circle cx="338.5" cy="228.5" r="2.5" fill="white"/>
<circle cx="352.5" cy="248.5" r="2.5" fill="white"/>
<circle cx="302.5" cy="234.5" r="2.5" fill="white"/>
<circle cx="319.5" cy="246.5" r="2.5" fill="white"/>
<circle cx="320.5" cy="275.5" r="2.5" fill="white"/>
<circle cx="343.5" cy="255.5" r="2.5" fill="white"/>
<circle cx="342.5" cy="197.5" r="2.5" fill="white"/>
<circle cx="342.5" cy="189.5" r="2.5" fill="white"/>
<circle cx="342.5" cy="178.5" r="2.5" fill="white"/>
<path d="M342.5 190.5C342.714 189.7 342.589 182.167 342.5 178.5" stroke="white"/>
<circle cx="337.5" cy="218.5" r="2.5" fill="white"/>
<circle cx="357.5" cy="218.5" r="2.5" fill="white"/>
<circle cx="370.5" cy="218.5" r="2.5" fill="white"/>
<circle cx="359.5" cy="174.5" r="2.5" fill="white"/>
<circle cx="385.5" cy="103.5" r="2.5" fill="white"/>
<circle cx="393.5" cy="113.5" r="2.5" fill="white"/>
<circle cx="379.5" cy="94.5" r="2.5" fill="white"/>
<circle cx="324.5" cy="175.5" r="2.5" fill="white"/>
<circle cx="293.5" cy="234.5" r="2.5" fill="white"/>
<circle cx="293.5" cy="246.5" r="2.5" fill="white"/>
<circle cx="302.5" cy="246.5" r="2.5" fill="white"/>
<circle cx="302.5" cy="287.5" r="2.5" fill="white"/>
<circle cx="268.5" cy="271.5" r="2.5" fill="white"/>
<path d="M338 218.5H358" stroke="white"/>
<path d="M307.5 207L323.5 198H342" stroke="white"/>
<path d="M303 234.5H320" stroke="white"/>
<path d="M320 247.5V274" stroke="white"/>
<path d="M359.5 173V184.5L370.5 195.5V218" stroke="white"/>
<path d="M338.5 228.5V240.5L352 248.294" stroke="white"/>
<path d="M320 262H332.5L343 256" stroke="white"/>
<path d="M367.5 192L379.5 180V94" stroke="white"/>
<path d="M393 155.5V112.5" stroke="white"/>
<path d="M385.5 160V102" stroke="white"/>
<path d="M379.5 163.5C380.3 163.038 388.833 157.694 393.5 155" stroke="white"/>
<path d="M293.5 245V257L267.519 272" stroke="white"/>
<path d="M302.5 246.5V287.5" stroke="white"/>
<defs>
<linearGradient id="paint0_linear_278_11181" x1="197.457" y1="209.046" x2="197.457" y2="449.142" gradientUnits="userSpaceOnUse">
<stop stop-color="#999999"/>
<stop offset="1" stop-color="white"/>
</linearGradient>
<linearGradient id="paint1_linear_278_11181" x1="284.382" y1="-87.5" x2="284.382" y2="711" gradientUnits="userSpaceOnUse">
<stop/>
<stop offset="1" stop-color="#666666"/>
</linearGradient>
</defs>
</svg>
